# xmcd
#
# Track frame offsets: 
#        150
#        12119
#        24256
#        37158
#        53504
#        70555
#        91540
#        106186
#        122850
#        136458
#        149507
#        170779
#
# Disc length: 2584 seconds
#
# Revision: 0
# Processed by: cddbd v1.5.2PL0 Copyright (c) Steve Scherf et al.
# Submitted via: ExactAudioCopyFreeDBPlugin 1.0
#
DISCID=990a160c
DTITLE=Omar and the Howlers - I'm Gone
DYEAR=2012
DGENRE=Blues
TTITLE0=I'm Gone
TTITLE1=All About The Money
TTITLE2=Drunkard's Paradise
TTITLE3=Wild and Free
TTITLE4=Down to the Station
TTITLE5=Lone Star Blues
TTITLE6=Omar's Boogie
TTITLE7=Goin' Back to Texas
TTITLE8=Let Me Hold You
TTITLE9=Move Up To Memphis
TTITLE10=I'm Mad Again
TTITLE11=Take Me Back
EXTD=
EXTT0=
EXTT1=
EXTT2=
EXTT3=
EXTT4=
EXTT5=
EXTT6=
EXTT7=
EXTT8=
EXTT9=
EXTT10=
EXTT11=
PLAYORDER=
